<svg height="303.8" viewBox="0 0 1470 303.8" width="1470" xmlns="http://www.w3.org/2000/svg"><path d="m1066.314 144.935 60.251 159.505c-17.757 -2.535 -35.503 -5.712 -53.573 -8.574l-33.941 -88.133 -34.873 80.857c-17.117 -2.862 -33.93 -3.815 -51.049 -6.037l61.195 -139.515L958.82 0.042h51.373l31.069 79.894L1074.563 0.042h51.991zM918.255 0.042h-46.613v276.495c15.221 0.954 31.069 1.583 46.613 3.48zm-86.885 273.32c-42.483 -2.852 -84.978 -5.378 -128.415 -6.342V0.043h47.558v221.955c27.273 0.63 54.537 2.842 80.857 4.11zm-179.16 -165.187v47.557h-64.998v108.122h-46.917V0.042h133.173v47.557h-86.246v60.576h64.998zM460.38 47.599v218.791c-15.859 0 -32.022 0 -47.567 0.63V47.599h-49.15V0.042h146.17v47.557zM312.301 158.258c-20.923 0 -45.66 0 -63.417 0.964v70.701c27.903 -1.907 55.806 -4.12 84.023 -5.073v45.659l-131.58 10.471V0.042h131.571v47.557h-84.015v64.056c18.396 0 46.613 -0.953 63.416 -0.953v47.567zM48.793 131.623v166.151c-17.107 1.907 -32.338 4.129 -48.502 6.667V0h45.346l61.824 172.818V0h47.567v284.734c-16.804 2.862 -33.93 3.815 -52.002 6.342z" fill="#e50914"/><text x="1100" y="160" font-family="Helvetica, Arial, sans-serif" font-weight="bold" font-size="110" fill="#e50914" text-anchor="start" dominant-baseline="middle">CLONE</text></svg>